<?xml version="1.0" standalone="no"?>
<!DOCTYPE svg PUBLIC "-//W3C//DTD SVG 20010904//EN"
 "http://www.w3.org/TR/2001/REC-SVG-20010904/DTD/svg10.dtd">
<svg version="1.0" xmlns="http://www.w3.org/2000/svg"
 width="128.000000pt" height="128.000000pt" viewBox="0 0 128.000000 128.000000"
 preserveAspectRatio="xMidYMid meet">
<g transform="translate(0.000000,128.000000) scale(0.100000,-0.100000)"
fill="#ffffff" stroke="none">
<path d="M87 1193 c-8 -8 -9 -543 -2 -543 3 0 44 38 91 85 48 47 89 85 93 85
3 0 67 -61 141 -135 l135 -135 92 92 93 93 -136 136 -137 137 48 56 c26 30 65
69 87 86 21 17 38 35 38 40 0 11 -533 14 -543 3z"/>
<path d="M737 1193 c-4 -3 -7 -46 -7 -95 l0 -88 140 0 140 0 0 -370 0 -370
-370 0 -370 0 0 95 0 95 -95 0 -95 0 0 -185 0 -185 555 0 555 0 0 555 0 555
-223 0 c-123 0 -227 -3 -230 -7z"/>
</g>
</svg>
