<?xml version="1.0" standalone="no"?>
<!DOCTYPE svg PUBLIC "-//W3C//DTD SVG 20010904//EN"
 "http://www.w3.org/TR/2001/REC-SVG-20010904/DTD/svg10.dtd">
<svg version="1.0" xmlns="http://www.w3.org/2000/svg"
 width="128.000000pt" height="128.000000pt" viewBox="0 0 128.000000 128.000000"
 preserveAspectRatio="xMidYMid meet">
<g transform="translate(0.000000,128.000000) scale(0.100000,-0.100000)"
fill="#ffffff" stroke="none">
<path d="M338 909 l-290 -291 41 -42 41 -41 254 254 254 253 250 -253 251
-254 41 41 42 41 -101 102 -101 101 0 130 0 130 -99 0 c-94 0 -99 -1 -105 -22
-5 -21 -13 -16 -88 60 -46 45 -87 82 -91 82 -5 0 -139 -131 -299 -291z"/>
<path d="M442 737 l-182 -182 0 -238 0 -237 140 0 140 0 0 175 0 175 95 0 95
0 0 -175 0 -175 140 0 140 0 0 238 0 237 -183 183 c-100 100 -187 182 -192
182 -6 0 -92 -82 -193 -183z m240 -44 c22 -20 24 -76 2 -97 -8 -9 -29 -16 -46
-16 -63 0 -89 61 -46 107 25 27 64 30 90 6z"/>
</g>
</svg>
