<?xml version="1.0" standalone="no"?>
<!DOCTYPE svg PUBLIC "-//W3C//DTD SVG 20010904//EN"
 "http://www.w3.org/TR/2001/REC-SVG-20010904/DTD/svg10.dtd">
<svg version="1.0" xmlns="http://www.w3.org/2000/svg"
 width="128.000000pt" height="128.000000pt" viewBox="0 0 128.000000 128.000000"
 preserveAspectRatio="xMidYMid meet">
<g transform="translate(0.000000,128.000000) scale(0.100000,-0.100000)"
fill="#ffffff" stroke="none">
<path d="M575 1209 c-91 -9 -186 -45 -263 -99 -87 -61 -142 -125 -186 -215
-110 -227 -68 -484 109 -660 111 -112 248 -168 405 -168 157 0 294 56 405 168
112 111 168 248 168 405 0 343 -293 604 -638 569z m120 -185 c19 -8 45 -55 45
-84 0 -33 -53 -80 -89 -80 -45 0 -85 39 -85 83 0 66 64 106 129 81z m35 -474
l0 -250 -80 0 -80 0 0 195 0 195 -40 0 -40 0 0 55 0 55 120 0 120 0 0 -250z"/>
</g>
</svg>
