<?xml version="1.0" standalone="no"?>
<!DOCTYPE svg PUBLIC "-//W3C//DTD SVG 20010904//EN"
 "http://www.w3.org/TR/2001/REC-SVG-20010904/DTD/svg10.dtd">
<svg version="1.0" xmlns="http://www.w3.org/2000/svg"
 width="128.000000pt" height="128.000000pt" viewBox="0 0 128.000000 128.000000"
 preserveAspectRatio="xMidYMid meet">
<g transform="translate(0.000000,128.000000) scale(0.100000,-0.100000)"
fill="#111111" stroke="none">
<path d="M200 1165 l0 -45 435 0 435 0 0 45 0 45 -435 0 -435 0 0 -45z"/>
<path d="M417 872 c-119 -119 -217 -221 -217 -225 0 -4 59 -7 130 -7 l130 0 0
-280 0 -280 178 2 177 3 3 278 2 277 125 0 c83 0 125 4 125 11 0 9 -424 439
-433 439 -1 0 -100 -98 -220 -218z"/>
</g>
</svg>
